<?xml version="1.0" encoding="utf-8"?>
<!-- Generator: Adobe Illustrator 19.0.0, SVG Export Plug-In . SVG Version: 6.00 Build 0)  -->
<svg version="1.1" id="Layer_1" xmlns="http://www.w3.org/2000/svg" xmlns:xlink="http://www.w3.org/1999/xlink" x="0px" y="0px"
	 viewBox="0 0 56.7 56.7" style="enable-background:new 0 0 56.7 56.7;" xml:space="preserve">
<style type="text/css">
	.st0{fill:#C8DCE6;}
	.st1{fill:#0B94CF;}
	.st2{fill:#C9E08F;}
	.st3{fill:#78A23F;}
	.st4{fill:#EE3226;}
	.st5{fill:#F68526;}
	.st6{fill:#FCBA1B;}
	.st7{fill:#F38194;}
</style>
<g>
	<path class="st0" d="M44.3,37.1c-4.9-0.1-9.7-2.5-13.4-6.3c3.8,3.7,6.1,8.5,6.2,13.4c0.1,4.7-2.5,10.6-8.7,10.6
		c-6.3,0-8.8-6-8.8-10.6c0.1-4.9,2.4-9.7,6.3-13.4c-3.7,3.8-8.5,6.2-13.4,6.3c-4.6,0.1-10.6-2.5-10.6-8.8c0-6.2,6-8.8,10.6-8.7
		c4.9,0.1,9.7,2.4,13.4,6.2c-3.8-3.7-6.2-8.5-6.3-13.4c-0.1-4.6,2.6-10.6,8.8-10.6c6.2,0,8.8,6,8.7,10.6c-0.1,4.9-2.4,9.7-6.2,13.4
		c3.7-3.8,8.5-6.2,13.4-6.2c4.7-0.1,10.6,2.5,10.6,8.7C54.9,34.6,48.9,37.2,44.3,37.1z"/>
	<path class="st1" d="M41.4,35.5c-4-0.1-7.9-2-10.9-5.1c3.1,3,5,7,5.1,10.9c0,3.8-2.1,8.7-7.1,8.7c-5.1,0-7.2-4.9-7.2-8.7
		c0-4,2-7.9,5.1-10.9c-3,3.1-7,5-11,5.1c-3.8,0-8.7-2.1-8.7-7.2c0-5.1,4.9-7.2,8.7-7.1c4,0,7.9,2,11,5.1c-3.1-3-5.1-7-5.1-11
		c0-3.8,2.1-8.7,7.2-8.7c5.1,0,7.2,4.9,7.1,8.7c0,4-2,7.9-5.1,11c3-3.1,7-5,10.9-5.1c3.8,0,8.7,2.1,8.7,7.1
		C50.1,33.5,45.2,35.6,41.4,35.5z"/>
	<path class="st2" d="M39,34.2c-3.2-0.1-6.5-1.7-8.9-4.2c2.5,2.5,4.1,5.7,4.1,8.9c0,3.1-1.7,7.1-5.8,7.1c-4.2,0-5.9-4-5.9-7.1
		c0-3.2,1.6-6.5,4.2-8.9c-2.5,2.5-5.7,4.1-9,4.2c-3.1,0-7.1-1.7-7.1-5.9c0-4.1,4-5.9,7.1-5.8c3.3,0,6.5,1.6,9,4.1
		c-2.6-2.5-4.1-5.7-4.2-9c0-3.1,1.7-7.1,5.9-7.1c4.1,0,5.9,4,5.8,7.1c0,3.3-1.6,6.5-4.1,9c2.5-2.5,5.7-4.1,8.9-4.1
		c3.1,0,7.1,1.7,7.1,5.8C46.1,32.5,42.1,34.2,39,34.2z"/>
	<path class="st3" d="M37,33.1c-2.7-0.1-5.3-1.4-7.3-3.4c2.1,2,3.4,4.7,3.4,7.3c0,2.5-1.4,5.8-4.8,5.8c-3.4,0-4.8-3.3-4.8-5.8
		c0-2.7,1.3-5.3,3.4-7.3c-2,2.1-4.7,3.4-7.3,3.4c-2.5,0-5.8-1.4-5.8-4.8c0-3.4,3.3-4.8,5.8-4.8c2.7,0,5.3,1.3,7.3,3.4
		c-2.1-2-3.4-4.7-3.4-7.3c0-2.5,1.4-5.8,4.8-5.8c3.4,0,4.8,3.3,4.8,5.8c0,2.7-1.3,5.3-3.4,7.3c2-2.1,4.7-3.4,7.3-3.4
		c2.5,0,5.8,1.4,5.8,4.8C42.9,31.8,39.6,33.2,37,33.1z"/>
	<path class="st4" d="M35.5,32.3c-2.2,0-4.3-1.1-6-2.8c1.7,1.7,2.7,3.8,2.8,6c0,2.1-1.1,4.7-3.9,4.7c-2.8,0-3.9-2.7-3.9-4.7
		c0-2.2,1.1-4.3,2.8-6c-1.7,1.7-3.8,2.7-6,2.8c-2,0-4.7-1.1-4.7-3.9c0-2.8,2.7-3.9,4.7-3.9c2.2,0,4.3,1.1,6,2.8
		c-1.7-1.7-2.8-3.8-2.8-6c0-2.1,1.2-4.7,3.9-4.7c2.8,0,3.9,2.7,3.9,4.7c0,2.2-1.1,4.3-2.8,6c1.7-1.7,3.8-2.7,6-2.8
		c2.1,0,4.7,1.1,4.7,3.9C40.2,31.1,37.5,32.3,35.5,32.3z"/>
	<path class="st5" d="M34.2,31.5c-1.8,0-3.5-0.9-4.9-2.3c1.4,1.4,2.2,3.1,2.3,4.9c0,1.7-0.9,3.9-3.2,3.9c-2.3,0-3.2-2.2-3.2-3.9
		c0-1.8,0.9-3.5,2.3-4.9c-1.4,1.4-3.1,2.2-4.9,2.3c-1.7,0-3.9-0.9-3.9-3.2c0-2.3,2.2-3.2,3.9-3.2c1.8,0,3.5,0.9,4.9,2.3
		c-1.4-1.4-2.3-3.1-2.3-4.9c0-1.7,0.9-3.9,3.2-3.9c2.3,0,3.2,2.2,3.2,3.9c0,1.8-0.9,3.5-2.3,4.9c1.4-1.4,3.1-2.2,4.9-2.3
		c1.7,0,3.9,0.9,3.9,3.2C38,30.6,35.9,31.6,34.2,31.5z"/>
	<path class="st6" d="M33.1,31c-1.4,0-2.9-0.7-4-1.9c1.1,1.1,1.8,2.5,1.8,4c0,1.4-0.8,3.2-2.6,3.2c-1.9,0-2.6-1.8-2.6-3.2
		c0-1.4,0.7-2.9,1.9-4c-1.1,1.1-2.5,1.8-4,1.9c-1.4,0-3.2-0.8-3.2-2.6c0-1.8,1.8-2.6,3.2-2.6c1.5,0,2.9,0.7,4,1.8
		c-1.1-1.1-1.8-2.5-1.9-4c0-1.4,0.8-3.2,2.6-3.2c1.8,0,2.6,1.8,2.6,3.2c0,1.5-0.7,2.9-1.8,4c1.1-1.1,2.5-1.8,4-1.8
		c1.4,0,3.2,0.8,3.2,2.6C36.3,30.2,34.5,31,33.1,31z"/>
	<path class="st7" d="M32.2,30.5c-1.2,0-2.4-0.6-3.3-1.5c0.9,0.9,1.5,2.1,1.5,3.3c0,1.1-0.6,2.6-2.1,2.6c-1.5,0-2.2-1.5-2.1-2.6
		c0-1.2,0.6-2.4,1.5-3.3c-0.9,0.9-2.1,1.5-3.3,1.5c-1.1,0-2.6-0.6-2.6-2.1c0-1.5,1.5-2.1,2.6-2.1c1.2,0,2.4,0.6,3.3,1.5
		c-0.9-0.9-1.5-2.1-1.5-3.3c0-1.1,0.6-2.6,2.1-2.6s2.2,1.5,2.1,2.6c0,1.2-0.6,2.4-1.5,3.3c0.9-0.9,2.1-1.5,3.3-1.5
		c1.1,0,2.6,0.6,2.6,2.1C34.8,29.9,33.4,30.5,32.2,30.5z"/>
</g>
</svg>
