<?xml version="1.0" encoding="utf-8"?>
<!-- Generator: Adobe Illustrator 19.0.0, SVG Export Plug-In . SVG Version: 6.00 Build 0)  -->
<svg version="1.1" id="Layer_1" xmlns="http://www.w3.org/2000/svg" xmlns:xlink="http://www.w3.org/1999/xlink" x="0px" y="0px"
	 viewBox="0 0 56.7 56.7" style="enable-background:new 0 0 56.7 56.7;" xml:space="preserve">
<style type="text/css">
	.st0{fill:#0B94CF;}
	.st1{fill:#78A23F;}
	.st2{fill:#C9E08F;}
	.st3{fill:#FCBA1B;}
	.st4{fill:#F68526;}
	.st5{fill:#EE3226;}
	.st6{fill:#FFFFFF;}
</style>
<g id="XMLID_2_">
	<g id="XMLID_14_">
		<path id="XMLID_15_" class="st0" d="M1.8,41.6C1.9,41.6,1.9,41.6,1.8,41.6l48.7,7.3c0,0,0,0,0,0.1c-1.3,3.6-13.2,4.8-26.6,2.8
			C10.4,49.7,0.6,45.2,1.8,41.6z"/>
	</g>
	<g id="XMLID_12_">
		<path id="XMLID_13_" class="st1" d="M8.1,34.5C8.1,34.5,8.1,34.5,8.1,34.5l42.3,15.1c0,0,0,0,0,0.1c-2.6,3.3-14.2,2.6-25.8-1.6
			C12.9,43.9,5.5,37.8,8.1,34.5z"/>
	</g>
	<g id="XMLID_10_">
		<path id="XMLID_11_" class="st2" d="M13.4,27C13.5,27,13.5,27,13.4,27l36,22.8c0,0,0,0-0.1,0c-3.9,3-15.1,0.4-25-5.9
			C14.4,37.6,9.6,30,13.4,27z"/>
	</g>
	<g id="XMLID_8_">
		<path id="XMLID_9_" class="st3" d="M19.9,19.5C19.9,19.5,20,19.5,19.9,19.5l29.7,30.6c0,0,0,0-0.1,0c-5.2,2.8-16.1-1.8-24.2-10.3
			C17.1,31.4,14.7,22.3,19.9,19.5z"/>
	</g>
	<g id="XMLID_6_">
		<path id="XMLID_7_" class="st4" d="M25.4,12c0,0,0.1,0,0.1,0l23.2,38.4c0,0-0.1,0-0.1,0c-6.5,2.6-17-4.1-23.4-14.7
			C18.8,25.1,18.9,14.5,25.4,12z"/>
	</g>
	<g id="XMLID_3_">
		<path id="XMLID_5_" class="st5" d="M28.7,6c-4.8,4.5-5.8,14.5-2,25c4.1,11.2,12.4,19.1,19.7,19.4c-4.3-4.9-8.6-11.7-12-19.7
			C30.5,21.4,28.6,12.6,28.7,6z"/>
		<path id="XMLID_4_" class="st6" d="M55,51c0,0-2.6-3.7-2.5-3.7L32.6,3.9c0,0-0.1,0-0.1,0C31,4.3,29.8,5,28.7,6
			c-0.1,6.6,1.8,15.4,5.7,24.6c3.4,8,9.9,17.3,14.2,22.2C49.6,52.9,54,51.2,55,51z"/>
	</g>
</g>
</svg>
