<?xml version="1.0" encoding="utf-8"?>
<!-- Generator: Adobe Illustrator 19.0.0, SVG Export Plug-In . SVG Version: 6.00 Build 0)  -->
<svg version="1.1" id="Layer_1" xmlns="http://www.w3.org/2000/svg" xmlns:xlink="http://www.w3.org/1999/xlink" x="0px" y="0px"
	 viewBox="0 0 56.7 56.7" style="enable-background:new 0 0 56.7 56.7;" xml:space="preserve">
<style type="text/css">
	.st0{fill:#98D9F0;}
	.st1{fill:#78A23F;}
	.st2{fill:#0B94CF;}
	.st3{fill:#F68526;}
	.st4{fill:#F38194;}
	.st5{fill:#FCBA1B;}
	.st6{fill:#EE3226;}
</style>
<g id="XMLID_2_">
	<g id="XMLID_8_">
		<path id="XMLID_12_" class="st0" d="M17.5,47.3c-2.7-5.6-9.5-8.7-12.4-8.7c-2.9,0-4.5,2.7-3.7,4.3c0.8,1.7,2.7,2.1,4.7,1.2
			C8.2,43.4,15,44.9,17.5,47.3z"/>
		<path id="XMLID_11_" class="st1" d="M22.1,47.5c-0.2-5.2-5.6-17.3-14.7-20.8C3.1,24.6-0.2,30.1,5,32C9.4,33.6,16.5,37.4,22.1,47.5
			z"/>
		<path id="XMLID_10_" class="st2" d="M25.2,46.6c1.2-6-2.7-23.7-9.3-31c-2.3-2.9-8.3,1.2-4.5,5C15.1,24.3,23.8,36.1,25.2,46.6z"/>
		<path id="XMLID_9_" class="st3" d="M28.2,8.5c1.1,0,3.5,0.5,4.3,2.3c-1.9,5-3.7,25-4.3,37.4c-0.6-12.4-2.5-32.4-4.3-37.4
			C24.8,9.1,26.7,8.5,28.2,8.5z"/>
	</g>
	<g id="XMLID_3_">
		<path id="XMLID_7_" class="st4" d="M39.2,47.3c2.7-5.6,9.5-8.7,12.4-8.7c2.9,0,4.5,2.7,3.7,4.3c-0.8,1.7-2.7,2.1-4.7,1.2
			C48.5,43.4,41.6,44.9,39.2,47.3z"/>
		<path id="XMLID_6_" class="st5" d="M34.6,47.5c0.2-5.2,5.6-17.3,14.7-20.8c4.3-2.1,7.6,3.5,2.5,5.4C47.3,33.6,40.2,37.4,34.6,47.5
			z"/>
		<path id="XMLID_5_" class="st3" d="M31.4,46.6c-1.2-6,2.7-23.7,9.3-31c2.3-2.9,8.3,1.2,4.5,5C41.6,24.3,32.9,36.1,31.4,46.6z"/>
		<path id="XMLID_4_" class="st6" d="M28.5,8.5c-1.1,0-3.5,0.5-4.3,2.3c1.9,5,3.7,25,4.3,37.4c0.6-12.4,2.5-32.4,4.3-37.4
			C31.9,9.1,30,8.5,28.5,8.5z"/>
	</g>
</g>
</svg>
