<?xml version="1.0" encoding="utf-8"?>
<!-- Generator: Adobe Illustrator 19.0.0, SVG Export Plug-In . SVG Version: 6.00 Build 0)  -->
<svg version="1.1" id="Layer_1" xmlns="http://www.w3.org/2000/svg" xmlns:xlink="http://www.w3.org/1999/xlink" x="0px" y="0px"
	 viewBox="0 0 56.7 56.7" style="enable-background:new 0 0 56.7 56.7;" xml:space="preserve">
<style type="text/css">
	.st0{fill:#98D9F0;}
	.st1{fill:#C9E08F;}
	.st2{fill:#EE3226;}
	.st3{fill:#78A23F;}
	.st4{fill:#FCBA1B;}
	.st5{fill:#0B94CF;}
	.st6{fill:#F38194;}
</style>
<g>
	<path class="st0" d="M20.2,38.6c3.3,0.6,3.7,0.7,3.7,0.7c0,0,0,0,0,0c0,0-0.3-0.1,5.5,1c-1.7-6.2-1.7-5.9-1.7-5.9c0,0,0,0,0,0
		c0,0-0.1-0.4-1.1-4c-3-10.5-16.7-9.1-16.7-9.1l0,0C9.8,21.4,10.4,36.8,20.2,38.6z"/>
	<path class="st1" d="M47.1,21.6L47.1,21.6c0,0-13.8-1.7-16.9,8.7c-1,3.6-1.2,4-1.2,4c0,0,0,0,0,0c0,0,0.1-0.3-1.7,5.9
		c5.8-1,5.5-0.9,5.5-0.9c0,0,0,0,0,0c0,0,0.4-0.1,3.7-0.6C46.4,36.9,47.1,21.6,47.1,21.6z"/>
	<path class="st2" d="M28.6,39.9L28.6,39.9c0.1,0,10.4-11.4,4.7-21.1c-1.9-3.3-2.1-3.7-2.2-3.7c0,0,0,0,0,0c0,0,0.2,0.3-3.2-5.4
		c-3.1,5.9-3,5.6-2.9,5.6c0,0,0,0,0,0c0,0-0.2,0.4-2,3.8C17.8,29.1,28.6,39.9,28.6,39.9z"/>
	<path class="st3" d="M54.9,39.2L54.9,39.2c0-0.1-10.2-11.6-19-5.3c-3,2.1-3.3,2.4-3.3,2.4c0,0,0,0,0,0c0,0,0.2-0.2-4.9,3.5
		c5.3,3.4,5.1,3.3,5,3.3c0,0,0,0,0,0c0,0,0.4,0.2,3.4,2.2C45.2,51.2,54.9,39.2,54.9,39.2z"/>
	<path class="st4" d="M42.3,26L42.3,26c0,0-10.2-1.3-12.5,6.5c-0.8,2.6-0.9,2.9-0.9,3c0,0,0,0,0,0c0,0,0.1-0.2-1.3,4.3
		c4.3-0.7,4.1-0.7,4.1-0.7c0,0,0,0,0,0c0,0,0.3-0.1,2.8-0.5C41.7,37.4,42.3,26,42.3,26z"/>
	<path class="st5" d="M29,39.5L29,39.5c0-0.1-10.1-11.7-18.9-5.5c-3,2.1-3.3,2.3-3.4,2.4c0,0,0,0,0,0c0,0,0.2-0.2-4.9,3.5
		c5.2,3.5,5,3.3,5,3.3c0,0,0,0,0,0c0,0,0.4,0.2,3.4,2.3C19.1,51.3,29,39.5,29,39.5z"/>
	<path class="st6" d="M22.3,38.6c2.5,0.5,2.7,0.5,2.8,0.5c0,0,0,0,0,0c0,0-0.2,0,4.1,0.8c-1.3-4.6-1.2-4.4-1.2-4.4c0,0,0,0,0,0
		c0,0-0.1-0.3-0.8-3c-2.2-7.8-12.4-6.7-12.4-6.7l0,0C14.7,25.9,15.1,37.3,22.3,38.6z"/>
</g>
</svg>
