<?xml version="1.0" encoding="utf-8"?>
<!-- Generator: Adobe Illustrator 19.0.0, SVG Export Plug-In . SVG Version: 6.00 Build 0)  -->
<svg version="1.1" id="Layer_1" xmlns="http://www.w3.org/2000/svg" xmlns:xlink="http://www.w3.org/1999/xlink" x="0px" y="0px"
	 viewBox="0 0 56.7 56.7" style="enable-background:new 0 0 56.7 56.7;" xml:space="preserve">
<style type="text/css">
	.st0{fill:#0A4E9C;}
	.st1{fill:#21A8E0;}
</style>
<g id="XMLID_4_">
	<path id="XMLID_2_" class="st0" d="M53.4,29.6c0,0-4.3,17.5-20,19.3C17.7,50.7,9.4,38.4,9,34.1c0,0,16-2.2,19.3,0
		c3.3,2.2,9.6,7.3,9.6,7.3s-6.2-11.9-14.9-11.7c-8.7,0.2-19.8,0-19.8,0s0,13.1,11,19.5c11,6.4,22.3,4.9,29.7-1.5
		C51.4,41.3,53.4,29.6,53.4,29.6z"/>
	<path id="XMLID_1_" class="st1" d="M3.3,27.1c0,0,4.3-17.5,20-19.3C39,6,47.3,18.3,47.6,22.6c0,0-16,2.2-19.3,0
		c-3.3-2.2-9.6-7.3-9.6-7.3S25,27.3,33.6,27.1c8.7-0.2,19.8,0,19.8,0s0-13.1-11-19.5C31.4,1.2,20,2.7,12.7,9.1
		C5.3,15.4,3.3,27.1,3.3,27.1z"/>
</g>
</svg>
