<?xml version="1.0" encoding="utf-8"?>
<!-- Generator: Adobe Illustrator 19.0.0, SVG Export Plug-In . SVG Version: 6.00 Build 0)  -->
<svg version="1.1" id="Layer_1" xmlns="http://www.w3.org/2000/svg" xmlns:xlink="http://www.w3.org/1999/xlink" x="0px" y="0px"
	 viewBox="0 0 56.7 56.7" style="enable-background:new 0 0 56.7 56.7;" xml:space="preserve">
<style type="text/css">
	.st0{fill:#EE2228;}
</style>
<g>
	<path id="XMLID_2_" class="st0" d="M17.8,10.6c0,0,7.6-5.5,18.1-1.9c10.5,3.6,12.9,15.9,12.9,15.9s1.5,9-2.7,15
		c0,0-5.9,1.3-9.9-1.4c-4-2.7-4.5-4.9-5.3-9.9c-0.8-5,0-9.4-2.3-12.3C26.3,13,24.7,11.4,17.8,10.6z"/>
	<path id="XMLID_1_" class="st0" d="M41.1,44.6c0,0-8.8,7.8-20.5,3.1C8.8,43.1,8.1,32.7,7.7,27.7c-0.4-5,0.7-10,6.5-10.5
		c5.8-0.6,9.5-1.1,11,0.7c1.5,1.8,0.7,4.8,0.1,7.6c-0.6,2.8-2.6,5.7-3.6,11.2c-1,5.5-0.7,7.7,5.1,9.3C32.6,47.6,41.1,44.6,41.1,44.6
		z"/>
</g>
</svg>
