<?xml version="1.0" encoding="utf-8"?>
<!-- Generator: Adobe Illustrator 19.0.0, SVG Export Plug-In . SVG Version: 6.00 Build 0)  -->
<svg version="1.1" id="Layer_1" xmlns="http://www.w3.org/2000/svg" xmlns:xlink="http://www.w3.org/1999/xlink" x="0px" y="0px"
	 viewBox="0 0 20 20" style="enable-background:new 0 0 20 20;" xml:space="preserve">
<style type="text/css">
	.st0{fill:#83A5C6;}
	.st1{fill:#7894B3;}
	.st2{fill:#71A5D8;}
	.st3{fill:#6698CB;}
	.st4{fill:#DEC357;}
</style>
<g id="XMLID_201_">
	<path id="XMLID_202_" class="st0" d="M13.6,12.9H7.5c-0.6,0-1.1,0.5-1.1,1.1v0.1c0,0.4,0,2,4.2,2s4.2-1.6,4.2-2v-0.1
		C14.8,13.4,14.3,12.9,13.6,12.9z"/>
	<path id="XMLID_203_" class="st1" d="M13.7,12.9c0,0.6-0.3,1.2-0.7,1.6c-0.7,0.6-1.6,0.8-2.6,0.9c-0.9,0.1-1.9,0.1-2.8-0.2
		c-0.4-0.1-0.8-0.3-1.2-0.5c0.3,0.6,1.1,1.4,4.1,1.4c4.2,0,4.2-1.6,4.2-2v-0.1C14.8,13.4,14.3,13,13.7,12.9z"/>
	<path id="XMLID_204_" class="st2" d="M10.6,7.4C10.4,7.2,4.2,2,3.9,10.1h0.9c0,0,2.2-4.4,2.5,2.9c0,0,0,0,0,0
		c0,0.3,1.5,0.5,3.4,0.5c1.9,0,3.4-0.2,3.4-0.5c0.3-7.4,2.5-2.9,2.5-2.9h0.9C17,2,10.8,7.2,10.6,7.4z"/>
	<path id="XMLID_205_" class="st3" d="M14.7,7.6c-0.4,0-0.7,0.3-1,0.6c-0.8,1-1.3,2.3-1.5,3.6c-0.1,0.5-0.1,1.1-0.2,1.6
		c1.1-0.1,1.9-0.3,1.9-0.5c0.3-7.4,2.5-2.9,2.5-2.9h0.2c-0.2-0.8-0.6-1.5-1.1-2C15.3,7.8,15,7.6,14.7,7.6z"/>
	<g id="XMLID_206_">
		<circle id="XMLID_207_" class="st4" cx="4.1" cy="10.5" r="0.8"/>
		<circle id="XMLID_208_" class="st4" cx="17" cy="10.5" r="0.8"/>
	</g>
	<path id="XMLID_209_" class="st3" d="M10.6,7.4C10.4,7.3,7.2,4.5,5.2,6C5.5,6,5.8,6,6,6.1c1.5,0.3,2.9,1.1,3.9,2.2
		c0.2-0.4,0.5-0.7,0.8-1C10.6,7.3,10.6,7.4,10.6,7.4z"/>
</g>
</svg>
