<?xml version="1.0" encoding="utf-8"?>
<!-- Generator: Adobe Illustrator 19.0.0, SVG Export Plug-In . SVG Version: 6.00 Build 0)  -->
<svg version="1.1" id="Layer_1" xmlns="http://www.w3.org/2000/svg" xmlns:xlink="http://www.w3.org/1999/xlink" x="0px" y="0px"
	 viewBox="0 0 20 20" style="enable-background:new 0 0 20 20;" xml:space="preserve">
<style type="text/css">
	.st0{fill:#FFDE56;}
	.st1{fill:#FEEA77;}
	.st2{fill:#F38BAC;}
	.st3{fill:#F6A8BA;}
	.st4{fill:#926797;}
</style>
<g id="XMLID_1_">
	<path id="XMLID_3_" class="st0" d="M8.6,10.1v0.9c0.9,0,2,0.1,2.9,0v-1H8.6z"/>
	<path id="XMLID_4_" class="st1" d="M8.6,11.1v3.1l1.4-1.4l1.5,1.4v-3C10.6,11.1,9.4,11.1,8.6,11.1z"/>
	<path id="XMLID_5_" class="st2" d="M12,9.9l0.1,1.2c1,0,2-0.1,3-0.2L15,9.7L12,9.9z"/>
	<path id="XMLID_6_" class="st3" d="M12.3,14.1l1.4-1.5l1.6,1.2l-0.3-3c-1,0.1-2,0.2-3,0.2L12.3,14.1z"/>
	<path id="XMLID_7_" class="st1" d="M15.5,10.8l0.5,3l1.3-1.6l1.7,1.1l-0.5-3.1C17.5,10.5,16.5,10.7,15.5,10.8z"/>
	<path id="XMLID_8_" class="st0" d="M18.3,9.2l-3,0.4l0.2,1.1c1-0.1,2-0.3,3-0.6L18.3,9.2z"/>
	<path id="XMLID_9_" class="st3" d="M4.9,13.8l1.6-1.2l1.4,1.5L8.1,11c-1.1-0.1-2.1-0.2-3-0.3L4.9,13.8z"/>
	<path id="XMLID_10_" class="st2" d="M5.2,9.7l-0.1,1.1C6,10.9,7.1,11,8.1,11l0.1-1.1L5.2,9.7z"/>
	<path id="XMLID_11_" class="st0" d="M1.9,9.1l-0.2,1.1c0.7,0.1,1.7,0.3,3,0.5l0.2-1.1L1.9,9.1z"/>
	<path id="XMLID_12_" class="st1" d="M1.3,13.4L3,12.2l1.3,1.6l0.5-3.1c-1.3-0.2-2.3-0.4-3-0.5L1.3,13.4z"/>
	<path id="XMLID_13_" class="st4" d="M0.9,9.2c0,0,4.3,1.1,9.7,1.1c2.7,0,5.7-0.3,8.6-1.1L19,8.6c-2.8,0.8-5.7,1-8.4,1
		c-2.7,0-5.1-0.3-6.8-0.5C2.9,9,2.2,8.9,1.7,8.8c-0.2,0-0.4-0.1-0.6-0.1c-0.1,0-0.1,0-0.1,0c0,0,0,0,0,0L0.9,9.2L0.9,9.2z"/>
</g>
</svg>
