<?xml version="1.0" encoding="utf-8"?>
<!-- Generator: Adobe Illustrator 19.0.0, SVG Export Plug-In . SVG Version: 6.00 Build 0)  -->
<svg version="1.1" id="Layer_1" xmlns="http://www.w3.org/2000/svg" xmlns:xlink="http://www.w3.org/1999/xlink" x="0px" y="0px"
	 viewBox="0 0 20 20" style="enable-background:new 0 0 20 20;" xml:space="preserve">
<style type="text/css">
	.st0{fill:#C5E6E2;}
	.st1{fill:#F6A8BA;}
	.st2{fill:#FEEA77;}
	.st3{fill:#54C2B5;}
</style>
<g id="XMLID_12_">
	<path id="XMLID_4_" class="st0" d="M11.2,5c0.6,0.5,1.9,1.2,1.4,2c-0.2,0.4-0.7,0.6-1,0.9C11.4,8,11,8.3,11,8.6
		c0,0.5,0.9,1,1.3,1.3c0.3,0.2,0.5,0.5,0.4,0.8c-0.1,0.4-0.7,0.7-1,0.9c-0.3,0.3-0.9,0.8-0.6,1.2c0.2,0.3,0.8,0.3,1.1,0.3
		c0.4,0.1,1.1,0.3,0.7,0.8c-0.2,0.2-0.7,0.3-1,0.4c-0.3,0.1-0.6,0.3-0.8,0.6c-0.3,0.5,0.3,0.8,0.7,1c0.1,0.1,0.6,0.3,0.6,0.3
		c-0.2,0.2-0.6,0.3-0.9,0.4c-0.2,0.1-0.4,0.2-0.5,0.4c-0.1,0.2,0.2,0.4,0.3,0.4c0.4,0.2,0.7,0.3,1,0.7c0.2,0.2,0,0.2-0.2,0.3
		c-0.2,0.1-0.5,0.2-0.8,0.3c-0.2,0-0.5,0.4-0.2,0.3c0.4-0.1,0.9-0.3,1.2-0.5c0.2-0.1,0.6-0.3,0.6-0.5c0-0.3-0.4-0.5-0.6-0.6
		c-0.2-0.1-0.4-0.2-0.6-0.3c-0.1,0-0.2-0.1-0.2-0.2c-0.1-0.1-0.2,0,0,0c0.3-0.1,1.5-0.5,1.4-0.9c0-0.2-0.3-0.3-0.5-0.3
		c-0.3-0.1-0.6-0.3-0.8-0.5c-0.3-0.3,0.3-0.5,0.6-0.6c0.4-0.1,0.7-0.3,1-0.5c0.4-0.3,0.5-0.8,0-1.1c-0.4-0.2-0.9-0.2-1.3-0.3
		c-0.7-0.1-0.2-0.6,0.1-0.9c0.5-0.5,1.6-1,1.2-1.8c-0.3-0.6-1.3-0.9-1.6-1.5c-0.1-0.3,0.5-0.7,0.8-0.8c0.4-0.3,0.7-0.6,0.9-0.9
		c0.4-0.8-0.9-1.6-1.5-2C11.6,4.6,11.1,4.9,11.2,5L11.2,5z"/>
</g>
<g id="XMLID_10_">
	<path id="XMLID_3_" class="st1" d="M6.3,1.7C7,2.2,8.2,2.9,7.7,3.8C7.5,4.1,7,4.4,6.7,4.7C6.5,4.9,6.1,5.1,6.1,5.4
		c0,0.6,0.8,1,1.3,1.4C7.7,7,7.9,7.3,7.7,7.7c-0.1,0.4-0.7,0.7-1,1C6.5,8.9,5.9,9.4,6.1,9.8c0.2,0.3,0.8,0.3,1.1,0.3
		c0.5,0.1,1,0.2,0.8,0.7c-0.1,0.3-0.6,0.4-0.9,0.5c-0.3,0.1-0.6,0.3-0.8,0.5c-0.4,0.5,0,0.8,0.5,1.1c0.2,0.1,0.5,0.2,0.7,0.4
		c0,0,0.1,0-0.1,0c-0.1,0-0.1,0.1-0.2,0.1c-0.2,0.1-0.3,0.1-0.5,0.2c-0.5,0.2-0.9,0.5-0.3,0.9c0.4,0.2,0.8,0.4,1,0.7
		c0.2,0.2,0,0.2-0.2,0.4C7,15.9,6.7,15.9,6.5,16c-0.1,0-0.3,0.1-0.3,0.2c-0.1,0.1,0,0.2,0.1,0.1c0.4-0.1,0.9-0.3,1.2-0.5
		c0.2-0.1,0.6-0.3,0.6-0.5c0-0.3-0.4-0.5-0.6-0.7c-0.2-0.1-0.3-0.2-0.5-0.2c-0.1,0-0.2-0.1-0.2-0.2c0,0-0.1-0.1-0.1-0.1
		c-0.1,0.1-0.1,0.1,0,0C7,14,8,13.7,8,13.3c0-0.2-0.2-0.3-0.4-0.3c-0.3-0.2-0.6-0.3-0.9-0.5c-0.6-0.6,0.9-0.9,1.3-1.2
		c0.4-0.3,0.7-0.8,0.3-1.2C8.1,9.8,7.6,9.8,7.2,9.8C6.6,9.7,6.5,9.5,6.8,9C7.2,8.4,8.4,8,8.3,7.1c0-0.3-0.3-0.6-0.6-0.8
		C7.3,6.1,7,5.8,6.7,5.5C6.4,5.1,7,4.8,7.3,4.5c0.3-0.3,0.7-0.6,0.9-1c0.4-0.9-0.7-1.6-1.4-2.2C6.7,1.2,6.2,1.6,6.3,1.7L6.3,1.7z"/>
</g>
<g id="XMLID_8_">
	<path id="XMLID_2_" class="st2" d="M15,1.4c-0.6,0.6-1.4,1.1-1.6,1.9c-0.2,0.8,0.7,1.4,1.3,2c0.3,0.2,0.6,0.5,0.4,0.8
		c-0.2,0.3-0.5,0.6-0.8,0.8c-0.5,0.5-1,0.9-0.7,1.6c0.1,0.3,0.4,0.6,0.7,0.8c0.3,0.3,0.6,0.6,0.8,0.9c0.1,0.1,0.1,0.2,0.1,0.3
		c0,0.1-0.1,0.2,0,0.1c-0.1,0.1-0.4,0.1-0.5,0.1c-0.5,0.1-0.9,0.2-1.3,0.5c-0.4,0.4-0.2,0.9,0.2,1.2c0.3,0.2,0.8,0.4,1.1,0.6
		c0.4,0.3,0.4,0.7,0,1c-0.4,0.3-1.5,0.7-0.7,1.1c0.3,0.2,0.7,0.3,1,0.6c0.2,0.1-0.2,0.3-0.3,0.4c-0.2,0.1-0.5,0.3-0.7,0.4
		c-0.2,0.2-0.5,0.6-0.4,0.8c0.1,0.1,0.4,0.3,0.6,0.4c0.3,0.1,0.6,0.3,0.9,0.4c0.2,0,0.6-0.3,0.4-0.3c-0.5-0.1-0.9-0.3-1.3-0.6
		c-0.4-0.3,0.4-0.7,0.6-0.9c0.2-0.1,0.6-0.3,0.7-0.6c0.1-0.2-0.1-0.3-0.3-0.4c-0.3-0.2-0.6-0.3-0.9-0.5c0,0-0.2-0.1-0.1-0.2
		c0.1-0.1,0.3-0.2,0.4-0.2c0.5-0.3,1.1-0.7,0.9-1.3c-0.2-0.6-1.2-0.7-1.7-1.1c-0.2-0.2-0.3-0.5-0.2-0.7c0.1-0.1,0.3-0.1,0.5-0.2
		c0.4-0.1,0.9-0.1,1.2-0.4c0.4-0.3,0.2-0.7,0-1.1C14.8,9,13.5,8.4,14,7.4c0.1-0.2,0.5-0.5,0.8-0.7c0.3-0.3,0.6-0.5,0.7-0.8
		c0.1-0.3,0-0.5-0.2-0.8c-0.4-0.4-0.8-0.7-1.1-1.1c-0.8-1,0.3-1.9,1.1-2.5C15.5,1.2,15.1,1.2,15,1.4L15,1.4z"/>
</g>
<g id="XMLID_6_">
	<path id="XMLID_1_" class="st3" d="M10.3,2.7c-0.6,0.5-1.5,1-1.6,1.7c-0.1,0.7,1,1.3,1.5,1.7c0.3,0.3,0.2,0.4,0,0.7
		C9.8,7.1,9.5,7.3,9.2,7.5C8.6,8,8.5,8.5,9,9C9.3,9.3,9.7,9.5,10,9.8c0.2,0.2,0.5,0.5,0.4,0.7c0,0,0.1,0,0,0c-0.1,0-0.2,0-0.3,0.1
		c-0.2,0-0.5,0.1-0.7,0.1c-0.4,0.1-0.9,0.3-1,0.7c-0.1,0.6,0.8,0.9,1.3,1.1c0.3,0.1,0.8,0.4,0.5,0.8c-0.2,0.2-0.6,0.3-0.9,0.5
		c-0.2,0.1-0.4,0.3-0.4,0.4c0,0.2,0.5,0.4,0.7,0.4c0.2,0.1,0.3,0.1,0.5,0.2c0.1,0.1,0.3,0.1,0.1,0.2c-0.4,0.2-0.8,0.4-1.1,0.7
		C9,15.9,8.8,16.1,9,16.3c0.4,0.3,0.9,0.5,1.4,0.6c0.2,0,0.6-0.3,0.4-0.3c-0.5-0.1-0.9-0.3-1.3-0.5c-0.4-0.2,0.6-0.6,0.8-0.7
		c0.2-0.1,0.6-0.3,0.6-0.5c0-0.2-0.4-0.3-0.5-0.4c-0.3-0.1-0.6-0.2-0.9-0.4c-0.1,0-0.1,0,0,0c0.1,0,0.1-0.1,0.2-0.1
		c0.2-0.1,0.3-0.2,0.5-0.2c0.5-0.3,1-0.8,0.4-1.2C10,12,8.9,12,8.9,11.2c0-0.3,0.7-0.3,1-0.3c0.4-0.1,0.9-0.2,1-0.6
		c0.2-0.5-0.7-1.1-1.1-1.3C9.5,8.8,9.3,8.5,9.2,8.2C9.1,7.8,9.5,7.6,9.7,7.4c0.4-0.3,1.1-0.7,1.1-1.3c0-0.2-0.4-0.5-0.6-0.6
		c-0.3-0.3-0.7-0.5-1-0.8c-0.7-0.8,0.6-1.5,1.2-2C10.9,2.5,10.5,2.5,10.3,2.7L10.3,2.7z"/>
</g>
</svg>
