<?xml version="1.0" encoding="utf-8"?>
<!-- Generator: Adobe Illustrator 19.0.0, SVG Export Plug-In . SVG Version: 6.00 Build 0)  -->
<svg version="1.1" id="Layer_1" xmlns="http://www.w3.org/2000/svg" xmlns:xlink="http://www.w3.org/1999/xlink" x="0px" y="0px"
	 viewBox="0 0 20 20" style="enable-background:new 0 0 20 20;" xml:space="preserve">
<style type="text/css">
	.st0{fill:#F1E506;}
	.st1{fill:#595624;}
	.st2{fill:#9EB0B6;}
	.st3{fill:#F69DA7;}
	.st4{fill:#6DC8BD;}
	.st5{fill:#F9ED33;}
	.st6{fill:#1D1D1B;}
	.st7{fill:#FAC6CC;}
	.st8{fill:#4EC0AE;}
	.st9{fill:#8DD2CD;}
</style>
<g id="XMLID_129_">
	<g id="XMLID_130_">
		<circle id="XMLID_320_" class="st0" cx="9.4" cy="5.2" r="0.5"/>
		<g id="XMLID_131_">
			<path id="XMLID_319_" class="st1" d="M9.3,5C9.3,5,9.3,5,9.3,5c-0.2,0-0.6-0.6-0.8-0.8c0,0,0-0.1,0-0.1c0,0,0.1,0,0.1,0
				c0.2,0.4,0.6,0.8,0.6,0.8C9.3,4.8,9.4,4.9,9.3,5C9.4,4.9,9.4,4.9,9.3,5z"/>
		</g>
	</g>
	<path id="XMLID_132_" class="st2" d="M12,18.2c-0.4-0.2-0.9-1-1.5-1.4v-2.9c3.5-0.2,3.2-3.2,2.7-4.3C11.8,6.1,13,4.3,13,4.3h-3H7
		c0,0,1.2,1.8-0.2,5.1c-0.5,1.1-0.7,4.1,2.7,4.3v2.9C8.9,17.2,8.4,18,8,18.2c-0.6,0.3-1.4,0.6-0.5,0.6c0.8,0,2.5,0,2.5,0
		s1.7,0,2.5,0C13.4,18.8,12.6,18.5,12,18.2z M7.1,9.4c1.3-3.1,0.2-5,0.2-5H10h2.7c0,0-1.1,2,0.2,5c0.4,1,0.7,3.9-2.9,3.9
		C6.4,13.4,6.7,10.5,7.1,9.4z"/>
	<path id="XMLID_135_" class="st3" d="M7.5,8.2h4.9c-0.3-1.1-0.2-2-0.1-2.6H7.7C7.8,6.2,7.8,7.1,7.5,8.2z"/>
	<path id="XMLID_136_" class="st4" d="M7.1,9.4C7,9.8,6.9,10.3,6.9,10.8h6.3c0-0.5-0.1-1.1-0.2-1.4c-0.2-0.4-0.3-0.9-0.4-1.2H7.5
		C7.4,8.6,7.3,9,7.1,9.4z"/>
	<path id="XMLID_137_" class="st5" d="M6.9,10.8c0,1.2,0.7,2.5,3.1,2.5c2.4,0,3.1-1.3,3.1-2.5H6.9z"/>
	<g id="XMLID_1_">
		<path id="XMLID_3_" class="st6" d="M12.7,1.4c0,0-0.9-0.3-1.6-0.3c-0.2,0-0.3,0-0.4,0.1c-0.1,0-0.1,0.1-0.1,0.1
			c0,0-0.1,0.1-0.1,0.2c0,0.3-0.1,1.3-0.2,2.2c-0.1,0.5-0.1,0.9-0.2,1.2c0,0.3-0.1,0.5-0.1,0.5c0,0,0,0.1,0.1,0.1c0,0,0.1,0,0.1-0.1
			c0,0,0.1-0.9,0.2-1.8c0.1-0.9,0.2-1.9,0.2-2.2c0,0,0-0.1,0-0.1c0,0,0.1-0.1,0.1-0.1c0.1,0,0.2,0,0.3,0c0.3,0,0.7,0.1,1,0.1
			c0.3,0.1,0.5,0.1,0.5,0.1c0,0,0.1,0,0.1-0.1C12.8,1.5,12.8,1.4,12.7,1.4L12.7,1.4z"/>
	</g>
	<path id="XMLID_139_" class="st7" d="M10.9,6.2c0.2,0,0.4,0,0.7,0c0.2,0,0.5-0.1,0.7-0.1c0-0.4,0.1-0.7,0.2-0.9
		c-0.1,0-0.1,0.1-0.2,0.2c-0.1,0-0.2,0-0.2,0c-0.1,0-0.1,0.1-0.2,0.1c-0.1,0-0.1,0-0.2,0c-0.1,0-0.2,0.1-0.4,0.1
		c-0.2,0-0.3-0.1-0.4-0.1c-0.1,0-0.3-0.1-0.3,0c0,0,0,0.2,0,0.2c0,0-0.1,0-0.2,0C10,5.5,10,5.4,9.8,5.4c-0.1,0-0.2,0.2-0.4,0.2
		C9.3,5.5,9.3,5.3,9.1,5.3c-0.1,0-0.3,0-0.4,0.1c-0.1,0-0.2,0.2-0.3,0.2c0,0-0.1-0.1-0.1-0.1c0,0-0.1,0-0.1,0C8.1,5.4,8.1,5.4,8,5.3
		C7.9,5.2,7.8,5.1,7.6,5.1c0,0,0,0-0.1,0c0.1,0.2,0.1,0.5,0.1,0.8c0,0,0,0,0,0C7.9,6,8,6.1,8.2,6.1c0.3,0.1,0.7,0.1,1.1,0.1
		c0.4,0,0.8,0,1.2,0C10.6,6.2,10.7,6.2,10.9,6.2z"/>
	<g id="XMLID_140_">
		<path id="XMLID_141_" class="st8" d="M12.9,3.2c-0.7,0-1.2,0.5-1.3,1.2H13c0,0-0.3,0.5-0.4,1.4c0.2,0.1,0.2,0,0.3,0
			c0.7,0,1.3-0.6,1.3-1.3C14.2,3.7,13.6,3.2,12.9,3.2z"/>
		<path id="XMLID_142_" class="st4" d="M12.9,3.3c-0.6,0-1.1,0.5-1.1,1H13c0,0-0.3,0.4-0.4,1.2c0.1,0.1,0.2,0,0.3,0
			c0.6,0,1.1-0.5,1.1-1.1C14,3.8,13.5,3.3,12.9,3.3z"/>
		<path id="XMLID_143_" class="st9" d="M13.8,4.9l-0.8-0.5L13.8,4c0,0,0.1-0.1,0-0.1c0,0-0.1-0.1-0.1,0L13,4.3V3.4
			c0,0,0-0.1-0.1-0.1c0,0-0.1,0-0.1,0.1v0.9L12,3.9c0,0-0.1,0-0.1,0c0,0,0,0.1,0,0.1l0.6,0.3H13c0,0-0.1,0.1-0.2,0.4l0,0.8
			c0,0,0,0.1,0.1,0.1c0,0,0.1,0,0.1-0.1V4.6l0.8,0.5c0,0,0,0,0,0c0,0,0.1,0,0.1,0C13.9,5,13.9,4.9,13.8,4.9z"/>
	</g>
</g>
</svg>
