<?xml version="1.0" encoding="utf-8"?>
<!-- Generator: Adobe Illustrator 19.0.0, SVG Export Plug-In . SVG Version: 6.00 Build 0)  -->
<svg version="1.1" id="Layer_1" xmlns="http://www.w3.org/2000/svg" xmlns:xlink="http://www.w3.org/1999/xlink" x="0px" y="0px"
	 viewBox="0 0 20 20" style="enable-background:new 0 0 20 20;" xml:space="preserve">
<style type="text/css">
	.st0{fill:#1E5066;}
	.st1{fill:#1C829B;}
	.st2{fill:#F6A8BA;}
	.st3{fill:#81CEC6;}
	.st4{fill:#FEEA77;}
</style>
<g id="XMLID_15_">
	<g id="XMLID_18_">
		<path id="XMLID_6_" class="st0" d="M8.9,5.9C8.6,6.4,8.5,6.9,8.6,7.4C8.8,8,9.2,8.5,9.3,9.1c0.2,0.6-0.4,0.9-0.6,1.4
			c-0.2,0.7,0.3,1.3,0.8,1.7c0.1,0.1,0.2-0.1,0.1-0.1c-0.6-0.4-1-1.1-0.6-1.8c0.2-0.4,0.5-0.6,0.5-1c-0.1-0.5-0.4-1-0.6-1.4
			C8.7,7.2,8.6,6.6,9,6C9.1,6,8.9,5.9,8.9,5.9L8.9,5.9z"/>
	</g>
	<path id="XMLID_1_" class="st1" d="M8.7,0.7c-1.2,0-2.2,0.9-2.2,2.5c0,1.4,1.1,2.8,2,3.1L8.1,6.7c0.5-0.2,1,0.1,1,0.1L8.9,6.3
		c0.8-0.2,2.1-1.8,2-3.3C10.9,1.5,9.9,0.7,8.7,0.7z"/>
</g>
<g id="XMLID_2_">
	<g id="XMLID_4_">
		<path id="XMLID_5_" class="st0" d="M11,10.2c-0.5,0.4-0.7,0.8-0.7,1.4c0,0.6,0.2,1.2,0.2,1.9c0,0.6-0.7,0.7-1,1.2
			c-0.4,0.6-0.1,1.4,0.2,2c0.1,0.1,0.2,0,0.1-0.1c-0.4-0.6-0.7-1.5,0-2c0.3-0.3,0.7-0.4,0.8-0.9c0.1-0.5-0.1-1.1-0.1-1.6
			c-0.1-0.7,0-1.2,0.6-1.7C11.1,10.3,11.1,10.1,11,10.2L11,10.2z"/>
	</g>
	<path id="XMLID_3_" class="st2" d="M12.5,4.9c-1.2-0.4-2.5,0.2-3,1.8C9.1,8,9.7,9.8,10.4,10.4L10,10.7c0.5,0,1,0.4,1,0.4v-0.5
		c1,0.1,2.6-1.1,3-2.6C14.5,6.4,13.7,5.2,12.5,4.9z"/>
</g>
<g id="XMLID_10_">
	<g id="XMLID_12_">
		<path id="XMLID_8_" class="st0" d="M8.6,12.4c0.5,0.3,0.7,0.8,0.7,1.4c0,0.6-0.2,1.2-0.2,1.8c0,0.6,0.7,0.7,1,1.2
			c0.4,0.6,0.1,1.4-0.2,1.9c-0.1,0.1-0.2,0-0.1-0.1c0.4-0.6,0.6-1.4,0-2c-0.3-0.3-0.7-0.4-0.8-0.9c-0.1-0.5,0.1-1.1,0.1-1.6
			c0.1-0.7,0-1.2-0.6-1.6C8.4,12.4,8.5,12.3,8.6,12.4L8.6,12.4z"/>
	</g>
	<path id="XMLID_7_" class="st3" d="M10,8.9C9.6,7.4,8.3,6.8,7.1,7.2c-1.2,0.4-1.8,1.5-1.3,3.1C6.3,11.7,8,12.8,9,12.7v0.5
		c0,0,0.2-0.4,0.8-0.4l-0.5-0.3C10,12,10.4,10.2,10,8.9z"/>
</g>
<g id="XMLID_14_">
	<g id="XMLID_16_">
		<path id="XMLID_11_" class="st0" d="M11.9,12.3c0.2,0.5,0.1,1-0.2,1.4c-0.3,0.5-0.8,0.8-1.2,1.3c-0.3,0.5,0.1,0.9,0.1,1.5
			c-0.1,0.7-0.7,1.1-1.3,1.3c-0.1,0-0.2-0.1-0.1-0.1c0.6-0.2,1.3-0.7,1.2-1.5c-0.1-0.4-0.3-0.7-0.1-1.1c0.2-0.4,0.7-0.8,1-1.1
			c0.4-0.4,0.7-0.9,0.5-1.6C11.8,12.3,11.9,12.2,11.9,12.3L11.9,12.3z"/>
	</g>
	<path id="XMLID_9_" class="st4" d="M13.8,7.6c1.1,0.4,1.7,1.6,1.2,3c-0.5,1.2-1.9,2.2-2.8,2.2l0.2,0.5C12,13,11.5,13,11.5,13
		l0.3-0.4C11,12.2,10.4,10.4,11,9C11.5,7.6,12.7,7.1,13.8,7.6z"/>
</g>
</svg>
